# xmcd
#
# Track frame offsets:
#	150
#	14461
#	32614
#	43249
#	55834
#	72745
#	87773
#	100225
#	113362
#	124676
#	145554
#
# Disc length: 2060 seconds
#
# Revision: 1
# Processed by: cddbd v1.5.2PL0 Copyright (c) Steve Scherf et al.
# Submitted via: audiograbber 1.83.01
#
DISCID=8d080a0b
DTITLE=Texas Country Artist - Texas Country Artist 009
DYEAR=2007
DGENRE=Country
TTITLE0=Road To Romance  - Luann
TTITLE1=Any Way You Want Me To  - Jamie Richards
TTITLE2=Before I Met You - Liz Talley
TTITLE3=Strange To Us Is Dangerous  - Keith Mccoy
TTITLE4=Neon Halo  - Kim Carson
TTITLE5=Night Life  - Monty Monteith
TTITLE6=Baby, Where Did We Go Wrong - Rick Sancil and Luann
TTITLE7=Your Gonna Make It - Greg Sury
TTITLE8=Her Cheatin Heart  - Jeff Woolsey And The Dancehall Kings
TTITLE9=19 In Love - Charlie Lucus
TTITLE10=Thats All She Wrote  - David Tyler
EXTD=
EXTT0=
EXTT1=
EXTT2=
EXTT3=
EXTT4=
EXTT5=
EXTT6=
EXTT7=
EXTT8=
EXTT9=
EXTT10=
PLAYORDER=
